<svg width="94" height="94" viewBox="0 0 94 94" fill="none" xmlns="http://www.w3.org/2000/svg">
<mask id="mask0_150_254" style="mask-type:alpha" maskUnits="userSpaceOnUse" x="0" y="0" width="94" height="94">
<rect width="94" height="94" rx="15" fill="#EFE1D7"/>
</mask>
<g mask="url(#mask0_150_254)">
<path d="M35.7213 54.52C35.7213 57.5117 36.9097 60.3808 39.0251 62.4962C41.1405 64.6116 44.0096 65.8 47.0013 65.8C49.9929 65.8 52.862 64.6116 54.9774 62.4962C57.0928 60.3808 58.2812 57.5117 58.2812 54.52L47.0013 54.52L35.7213 54.52Z" fill="#313131"/>
<path d="M50.7598 58.28L50.7598 62.04C50.7598 64.1166 49.0764 65.8 46.9998 65.8C44.9232 65.8 43.2398 64.1166 43.2398 62.04L43.2398 58.28L50.7598 58.28Z" fill="#FF5454"/>
<circle cx="23.4996" cy="46.06" r="9.4" fill="#4A4A4A"/>
<circle cx="23.4996" cy="46.06" r="9.4" fill="#4A4A4A"/>
<circle cx="70.4996" cy="46.06" r="9.4" fill="#4A4A4A"/>
<circle cx="25.3797" cy="44.18" r="4.7" fill="#FBF1F1"/>
<circle cx="72.3797" cy="44.18" r="4.7" fill="#FBF1F1"/>
</g>
</svg>
