<svg width="132" height="131" viewBox="0 0 132 131" fill="none" xmlns="http://www.w3.org/2000/svg">
<path d="M107.4 107.312C109.94 109.852 114.088 109.871 116.363 107.09C123.088 98.8642 127.718 89.0885 129.804 78.6032C132.314 65.984 131.026 52.9039 126.102 41.0169C121.178 29.1298 112.84 18.9698 102.142 11.8216C91.4438 4.67342 78.8663 0.858089 65.9999 0.85809C53.1335 0.858092 40.556 4.67343 29.858 11.8216C19.16 18.9698 10.8219 29.1298 5.89808 41.0169C0.974317 52.9039 -0.313952 65.984 2.19615 78.6032C4.2818 89.0885 8.912 98.8642 15.6373 107.09C17.9115 109.871 22.0595 109.852 24.6 107.312C27.1405 104.771 27.1029 100.674 24.8989 97.8366C19.9567 91.4737 16.5402 84.0249 14.9569 76.065C12.9488 65.9696 13.9794 55.5055 17.9185 45.9959C21.8575 36.4862 28.528 28.3582 37.0864 22.6397C45.6448 16.9211 55.7068 13.8688 65.9999 13.8688C76.2931 13.8688 86.3551 16.9211 94.9135 22.6397C103.472 28.3582 110.142 36.4862 114.081 45.9959C118.02 55.5055 119.051 65.9696 117.043 76.0649C115.46 84.0249 112.043 91.4737 107.101 97.8366C104.897 100.674 104.859 104.771 107.4 107.312Z" fill="#D9D9D9"/>
<path d="M107.4 24.5119C109.94 21.9714 109.959 17.8235 107.178 15.5493C102.264 11.532 96.7801 8.24773 90.8949 5.81001C83.0022 2.54076 74.5429 0.85809 65.9999 0.85809C57.4569 0.858091 48.9976 2.54076 41.1049 5.81002C33.2122 9.07927 26.0408 13.8711 20 19.9119C13.9592 25.9527 9.16734 33.1242 5.89808 41.0169C2.62883 48.9096 0.946165 57.3689 0.946164 65.9119C0.946164 74.4549 2.62883 82.9142 5.89809 90.8069C8.3358 96.692 11.6201 102.176 15.6374 107.09C17.9116 109.871 22.0595 109.852 24.6 107.312C27.1405 104.771 27.103 100.674 24.899 97.8367C22.052 94.1713 19.702 90.1337 17.9185 85.8279C15.3031 79.5137 13.9569 72.7463 13.9569 65.9119C13.9569 59.0775 15.3031 52.31 17.9185 45.9959C20.5339 39.6817 24.3673 33.9445 29.2 29.1119C34.0326 24.2793 39.7698 20.4458 46.0839 17.8304C52.3981 15.215 59.1655 13.8688 65.9999 13.8688C72.8343 13.8688 79.6018 15.215 85.9159 17.8304C90.2218 19.6139 94.2594 21.9639 97.9247 24.811C100.762 27.0149 104.859 27.0524 107.4 24.5119Z" fill="#0043EE"/>
</svg>
