<svg width="240" height="241" viewBox="0 0 240 241" fill="none" xmlns="http://www.w3.org/2000/svg">
<path d="M120 240.224C143.734 240.224 166.935 233.186 186.668 220C206.402 206.815 221.783 188.073 230.866 166.146C239.948 144.219 242.324 120.091 237.694 96.8132C233.064 73.5355 221.635 52.1536 204.853 35.3713L132.728 107.496C135.245 110.013 136.96 113.221 137.654 116.712C138.349 120.204 137.992 123.823 136.63 127.112C135.267 130.401 132.96 133.213 130 135.191C127.04 137.168 123.56 138.224 120 138.224L120 240.224Z" fill="#FF3636" fill-opacity="0.4"/>
<path d="M120 240.224C130.487 240.224 140.929 238.849 151.058 236.135L124.659 137.611C123.139 138.018 121.573 138.224 120 138.224L120 240.224Z" fill="#FF3636"/>
<path d="M120.001 240.776C101.594 240.776 83.4346 236.542 66.9263 228.401C50.418 220.26 36.0038 208.431 24.7986 193.828C13.5934 179.225 5.89767 162.24 2.30674 144.187C-1.2842 126.134 -0.674084 107.497 4.08986 89.718L102.614 116.118C101.9 118.784 101.808 121.58 102.347 124.288C102.885 126.996 104.04 129.544 105.721 131.734C107.401 133.924 109.564 135.699 112.04 136.92C114.516 138.141 117.24 138.776 120.001 138.776L120.001 240.776Z" fill="#5EFF36"/>
<path d="M4.08986 89.7179C9.54173 69.3712 20.2534 50.8181 35.1481 35.9233C50.0429 21.0286 68.596 10.3169 88.9427 4.86503C109.289 -0.586826 130.713 -0.586828 151.059 4.86503C171.406 10.3169 189.959 21.0285 204.854 35.9233L132.729 108.048C130.495 105.814 127.712 104.207 124.66 103.389C121.608 102.572 118.394 102.572 115.342 103.389C112.29 104.207 109.507 105.814 107.273 108.048C105.039 110.282 103.432 113.065 102.614 116.117L4.08986 89.7179Z" fill="#FFEB36" fill-opacity="0.4"/>
<path d="M4.08986 89.7179C8.16849 74.4962 15.2053 60.2269 24.7986 47.7248C34.3918 35.2226 46.3536 24.7324 60.001 16.8531L111.001 105.188C108.954 106.37 107.16 107.943 105.721 109.818C104.282 111.694 103.226 113.834 102.614 116.117L4.08986 89.7179Z" fill="#FFEB36"/>
</svg>
