<svg width="240" height="241" viewBox="0 0 240 241" fill="none" xmlns="http://www.w3.org/2000/svg">
<path d="M120 240C143.733 240 166.934 232.962 186.668 219.776C206.401 206.591 221.782 187.849 230.865 165.922C239.947 143.995 242.323 119.867 237.693 96.5893C233.063 73.3116 221.634 51.9296 204.852 35.1473L132.727 107.272C135.245 109.79 136.959 112.997 137.654 116.488C138.348 119.98 137.992 123.599 136.629 126.888C135.267 130.177 132.96 132.989 130 134.967C127.04 136.944 123.56 138 120 138L120 240Z" fill="#FF3636" fill-opacity="0.4"/>
<path d="M120 240C130.486 240 140.928 238.625 151.058 235.911L124.658 137.387C123.139 137.794 121.573 138 120 138L120 240Z" fill="#FF3636"/>
<path d="M120 240.552C101.594 240.552 83.4343 236.318 66.9261 228.177C50.4178 220.036 36.0036 208.207 24.7985 193.604C13.5933 179.001 5.89764 162.016 2.30672 143.963C-1.28419 125.91 -0.674084 107.273 4.08985 89.494L102.614 115.894C101.899 118.56 101.808 121.356 102.346 124.064C102.885 126.772 104.039 129.32 105.72 131.51C107.401 133.7 109.563 135.475 112.039 136.696C114.516 137.917 117.24 138.552 120 138.552L120 240.552Z" fill="#5EFF36"/>
<path d="M4.08985 89.494C9.54169 69.1473 20.2533 50.5942 35.148 35.6995C50.0427 20.8047 68.5957 10.093 88.9423 4.64116C109.289 -0.810703 130.712 -0.810705 151.059 4.64115C171.405 10.093 189.958 20.8047 204.853 35.6994L132.728 107.824C130.494 105.59 127.711 103.983 124.659 103.166C121.607 102.348 118.394 102.348 115.342 103.166C112.29 103.983 109.507 105.59 107.273 107.824C105.038 110.059 103.432 112.842 102.614 115.894L4.08985 89.494Z" fill="#FFEB36" fill-opacity="0.4"/>
<path d="M4.08985 89.494C8.16846 74.2723 15.2053 60.0031 24.7985 47.5009C34.3917 34.9987 46.3534 24.5085 60.0007 16.6292L111.001 104.964C108.953 106.146 107.159 107.719 105.72 109.595C104.281 111.47 103.226 113.61 102.614 115.894L4.08985 89.494Z" fill="#FFEB36"/>
</svg>
